%TF.GenerationSoftware,KiCad,Pcbnew,9.0.1*%
%TF.CreationDate,2025-08-23T19:16:10+03:00*%
%TF.ProjectId,Control_board,436f6e74-726f-46c5-9f62-6f6172642e6b,rev?*%
%TF.SameCoordinates,Original*%
%TF.FileFunction,Soldermask,Bot*%
%TF.FilePolarity,Negative*%
%FSLAX46Y46*%
G04 Gerber Fmt 4.6, Leading zero omitted, Abs format (unit mm)*
G04 Created by KiCad (PCBNEW 9.0.1) date 2025-08-23 19:16:10*
%MOMM*%
%LPD*%
G01*
G04 APERTURE LIST*
%ADD10C,1.226200*%
%ADD11C,1.576200*%
%ADD12C,0.010000*%
%ADD13C,3.000000*%
%ADD14C,1.700000*%
%ADD15R,1.700000X1.700000*%
%ADD16O,1.700000X1.700000*%
%ADD17C,1.270000*%
%ADD18C,2.540000*%
%ADD19R,2.000000X1.600000*%
%ADD20O,2.000000X1.600000*%
G04 APERTURE END LIST*
D10*
%TO.C,J6*%
X85396700Y-139547600D02*
G75*
G02*
X84170500Y-139547600I-613100J0D01*
G01*
X84170500Y-139547600D02*
G75*
G02*
X85396700Y-139547600I613100J0D01*
G01*
X79896700Y-139547600D02*
G75*
G02*
X78670500Y-139547600I-613100J0D01*
G01*
X78670500Y-139547600D02*
G75*
G02*
X79896700Y-139547600I613100J0D01*
G01*
D11*
X72771700Y-139547600D02*
G75*
G02*
X71195500Y-139547600I-788100J0D01*
G01*
X71195500Y-139547600D02*
G75*
G02*
X72771700Y-139547600I788100J0D01*
G01*
D10*
X85396700Y-143747600D02*
G75*
G02*
X84170500Y-143747600I-613100J0D01*
G01*
X84170500Y-143747600D02*
G75*
G02*
X85396700Y-143747600I613100J0D01*
G01*
X79896700Y-143747600D02*
G75*
G02*
X78670500Y-143747600I-613100J0D01*
G01*
X78670500Y-143747600D02*
G75*
G02*
X79896700Y-143747600I613100J0D01*
G01*
X85396700Y-147947600D02*
G75*
G02*
X84170500Y-147947600I-613100J0D01*
G01*
X84170500Y-147947600D02*
G75*
G02*
X85396700Y-147947600I613100J0D01*
G01*
D11*
X72771700Y-147947600D02*
G75*
G02*
X71195500Y-147947600I-788100J0D01*
G01*
X71195500Y-147947600D02*
G75*
G02*
X72771700Y-147947600I788100J0D01*
G01*
D12*
X80509800Y-149173800D02*
X78057400Y-149173800D01*
X78057400Y-146721400D01*
X80509800Y-146721400D01*
X80509800Y-149173800D01*
G36*
X80509800Y-149173800D02*
G01*
X78057400Y-149173800D01*
X78057400Y-146721400D01*
X80509800Y-146721400D01*
X80509800Y-149173800D01*
G37*
%TD*%
D13*
%TO.C,J6*%
X71983600Y-139547600D03*
X71983600Y-147947600D03*
%TD*%
D14*
%TO.C,U9*%
X155092400Y-143916400D03*
X152552400Y-143916400D03*
X150012400Y-143916400D03*
D15*
X147472400Y-143916400D03*
%TD*%
D14*
%TO.C,U7*%
X139750800Y-143814800D03*
X137210800Y-143814800D03*
X134670800Y-143814800D03*
X132130800Y-143814800D03*
X129590800Y-143814800D03*
X127050800Y-143814800D03*
D15*
X124510800Y-143814800D03*
%TD*%
%TO.C,U11*%
X204470000Y-147574000D03*
D14*
X204470000Y-145034000D03*
X204470000Y-142494000D03*
X204470000Y-139954000D03*
%TD*%
D16*
%TO.C,U3*%
X159134100Y-119566600D03*
X183984100Y-129726600D03*
X183984100Y-127186600D03*
X159134100Y-124646600D03*
X159134100Y-127186600D03*
X159134100Y-129726600D03*
X159134100Y-132266600D03*
D15*
X159134100Y-114486600D03*
D16*
X159134100Y-117026600D03*
D15*
X183984100Y-114486600D03*
D16*
X183984100Y-132266600D03*
X183984100Y-122106600D03*
X183984100Y-119566600D03*
X183984100Y-117026600D03*
X159134100Y-122106600D03*
X183984100Y-124646600D03*
%TD*%
D15*
%TO.C,JP2*%
X108153200Y-112979200D03*
D14*
X108153200Y-115519200D03*
X108153200Y-118059200D03*
%TD*%
%TO.C,JP1*%
X96113600Y-117957600D03*
X96113600Y-115417600D03*
D15*
X96113600Y-112877600D03*
%TD*%
D13*
%TO.C,H3*%
X66344800Y-156159200D03*
%TD*%
D17*
%TO.C,TH1*%
X106605000Y-102654200D03*
X111705000Y-104254200D03*
%TD*%
D15*
%TO.C,J1*%
X196037200Y-48260000D03*
D14*
X196037200Y-50800000D03*
X196037200Y-53340000D03*
X196037200Y-55880000D03*
X196037200Y-58420000D03*
X196037200Y-60960000D03*
X196037200Y-63500000D03*
X196037200Y-66040000D03*
%TD*%
D17*
%TO.C,TH2*%
X106605000Y-85166200D03*
X111705000Y-86766200D03*
%TD*%
D18*
%TO.C,J4*%
X193649600Y-109728000D03*
X193649600Y-104648000D03*
X193649600Y-99568000D03*
X193649600Y-94488000D03*
X193629600Y-89408000D03*
X193629600Y-84328000D03*
X193629600Y-79248000D03*
X193629600Y-74168000D03*
%TD*%
D13*
%TO.C,H4*%
X65989200Y-45974000D03*
%TD*%
D18*
%TO.C,J3*%
X77466800Y-84176800D03*
X77466800Y-89256800D03*
%TD*%
%TO.C,J2*%
X193802000Y-132283200D03*
X193802000Y-127203200D03*
X193802000Y-122123200D03*
X193802000Y-117043200D03*
%TD*%
%TO.C,J5*%
X77500800Y-95148400D03*
X77500800Y-100228400D03*
X77500800Y-105308400D03*
X77500800Y-110388400D03*
X77520800Y-115468400D03*
X77520800Y-120548400D03*
X77520800Y-125628400D03*
X77520800Y-130708400D03*
%TD*%
D13*
%TO.C,H2*%
X203962000Y-156159200D03*
%TD*%
%TO.C,H1*%
X204339200Y-45974000D03*
%TD*%
D16*
%TO.C,U4*%
X124751000Y-116939000D03*
X124751000Y-119479000D03*
X151651000Y-132179000D03*
X151651000Y-124559000D03*
X151651000Y-127099000D03*
X151651000Y-122019000D03*
X151651000Y-119479000D03*
X124751000Y-127099000D03*
X124751000Y-129639000D03*
X124751000Y-124559000D03*
X151651000Y-129639000D03*
X124751000Y-122019000D03*
D15*
X124751000Y-114399000D03*
D16*
X151651000Y-116939000D03*
D15*
X151651000Y-114399000D03*
D16*
X124751000Y-132179000D03*
%TD*%
D19*
%TO.C,BT1*%
X160828300Y-68994400D03*
D20*
X160828300Y-48494400D03*
%TD*%
M02*
