%TF.GenerationSoftware,KiCad,Pcbnew,9.0.1*%
%TF.CreationDate,2025-08-26T10:13:58+03:00*%
%TF.ProjectId,Control_board,436f6e74-726f-46c5-9f62-6f6172642e6b,rev?*%
%TF.SameCoordinates,Original*%
%TF.FileFunction,Soldermask,Bot*%
%TF.FilePolarity,Negative*%
%FSLAX46Y46*%
G04 Gerber Fmt 4.6, Leading zero omitted, Abs format (unit mm)*
G04 Created by KiCad (PCBNEW 9.0.1) date 2025-08-26 10:13:58*
%MOMM*%
%LPD*%
G01*
G04 APERTURE LIST*
%ADD10C,0.010000*%
%ADD11C,1.226200*%
%ADD12C,1.576200*%
%ADD13C,3.500000*%
%ADD14C,1.700000*%
%ADD15R,1.700000X1.700000*%
%ADD16C,1.500000*%
%ADD17C,3.000000*%
%ADD18C,1.270000*%
%ADD19C,2.540000*%
%ADD20C,2.000000*%
%ADD21C,1.600000*%
%ADD22O,1.700000X1.700000*%
%ADD23R,2.000000X1.600000*%
%ADD24O,2.000000X1.600000*%
G04 APERTURE END LIST*
D10*
%TO.C,J6*%
X80509800Y-149173800D02*
X78057400Y-149173800D01*
X78057400Y-146721400D01*
X80509800Y-146721400D01*
X80509800Y-149173800D01*
G36*
X80509800Y-149173800D02*
G01*
X78057400Y-149173800D01*
X78057400Y-146721400D01*
X80509800Y-146721400D01*
X80509800Y-149173800D01*
G37*
D11*
X85396700Y-147947600D02*
G75*
G02*
X84170500Y-147947600I-613100J0D01*
G01*
X84170500Y-147947600D02*
G75*
G02*
X85396700Y-147947600I613100J0D01*
G01*
X85396700Y-143747600D02*
G75*
G02*
X84170500Y-143747600I-613100J0D01*
G01*
X84170500Y-143747600D02*
G75*
G02*
X85396700Y-143747600I613100J0D01*
G01*
X85396700Y-139547600D02*
G75*
G02*
X84170500Y-139547600I-613100J0D01*
G01*
X84170500Y-139547600D02*
G75*
G02*
X85396700Y-139547600I613100J0D01*
G01*
X79896700Y-143747600D02*
G75*
G02*
X78670500Y-143747600I-613100J0D01*
G01*
X78670500Y-143747600D02*
G75*
G02*
X79896700Y-143747600I613100J0D01*
G01*
X79896700Y-139547600D02*
G75*
G02*
X78670500Y-139547600I-613100J0D01*
G01*
X78670500Y-139547600D02*
G75*
G02*
X79896700Y-139547600I613100J0D01*
G01*
D12*
X72771700Y-147947600D02*
G75*
G02*
X71195500Y-147947600I-788100J0D01*
G01*
X71195500Y-147947600D02*
G75*
G02*
X72771700Y-147947600I788100J0D01*
G01*
X72771700Y-139547600D02*
G75*
G02*
X71195500Y-139547600I-788100J0D01*
G01*
X71195500Y-139547600D02*
G75*
G02*
X72771700Y-139547600I788100J0D01*
G01*
%TD*%
D13*
%TO.C,J8*%
X195565600Y-146157200D03*
X195565600Y-134117200D03*
D14*
X192855600Y-138887200D03*
X192855600Y-141387200D03*
X190855600Y-141387200D03*
D15*
X190855600Y-138887200D03*
%TD*%
D16*
%TO.C,Y1*%
X124268400Y-92456000D03*
X119368400Y-92456000D03*
%TD*%
D17*
%TO.C,H1*%
X204339200Y-45974000D03*
%TD*%
%TO.C,H2*%
X204876400Y-156311600D03*
%TD*%
%TO.C,H3*%
X66526400Y-156311600D03*
%TD*%
%TO.C,H4*%
X65989200Y-45974000D03*
%TD*%
%TO.C,J6*%
X71983600Y-147947600D03*
X71983600Y-139547600D03*
%TD*%
D15*
%TO.C,JP3*%
X140817600Y-105816400D03*
D14*
X143357600Y-105816400D03*
%TD*%
D18*
%TO.C,TH1*%
X95581400Y-100114200D03*
X100681400Y-101714200D03*
%TD*%
D15*
%TO.C,JP1*%
X90220800Y-108966000D03*
D14*
X90220800Y-111506000D03*
X90220800Y-114046000D03*
%TD*%
D15*
%TO.C,J1*%
X196037200Y-48260000D03*
D14*
X196037200Y-50800000D03*
X196037200Y-53340000D03*
X196037200Y-55880000D03*
X196037200Y-58420000D03*
X196037200Y-60960000D03*
X196037200Y-63500000D03*
X196037200Y-66040000D03*
%TD*%
D15*
%TO.C,JP6*%
X123799600Y-105359200D03*
D14*
X126339600Y-105359200D03*
X128879600Y-105359200D03*
%TD*%
D15*
%TO.C,JP2*%
X99771200Y-108661200D03*
D14*
X99771200Y-111201200D03*
X99771200Y-113741200D03*
%TD*%
D18*
%TO.C,TH2*%
X95581400Y-82626200D03*
X100681400Y-84226200D03*
%TD*%
D19*
%TO.C,J4*%
X77673200Y-95554800D03*
X77673200Y-100634800D03*
X77673200Y-105714800D03*
X77673200Y-110794800D03*
X77693200Y-115874800D03*
X77693200Y-120954800D03*
X77693200Y-126034800D03*
X77693200Y-131114800D03*
%TD*%
D20*
%TO.C,SW9*%
X143007400Y-121854400D03*
X149507400Y-121854400D03*
X143007400Y-126354400D03*
X149507400Y-126354400D03*
%TD*%
D15*
%TO.C,U9*%
X149301200Y-87884000D03*
D14*
X151841200Y-87884000D03*
X154381200Y-87884000D03*
X156921200Y-87884000D03*
%TD*%
D20*
%TO.C,SW8*%
X132110800Y-121854400D03*
X138610800Y-121854400D03*
X132110800Y-126354400D03*
X138610800Y-126354400D03*
%TD*%
D19*
%TO.C,J3*%
X77466800Y-84176800D03*
X77466800Y-89256800D03*
%TD*%
D20*
%TO.C,SW7*%
X120092400Y-121854400D03*
X126592400Y-121854400D03*
X120092400Y-126354400D03*
X126592400Y-126354400D03*
%TD*%
D19*
%TO.C,J2*%
X192790000Y-86645100D03*
X192790000Y-81565100D03*
X192790000Y-76485100D03*
X192790000Y-71405100D03*
%TD*%
D15*
%TO.C,JP5*%
X124053600Y-111506000D03*
D14*
X126593600Y-111506000D03*
X129133600Y-111506000D03*
%TD*%
D19*
%TO.C,J9*%
X90171300Y-146053200D03*
X95251300Y-146053200D03*
%TD*%
D15*
%TO.C,U11*%
X67183000Y-52882800D03*
D14*
X67183000Y-55422800D03*
X67183000Y-57962800D03*
X67183000Y-60502800D03*
%TD*%
D21*
%TO.C,C2*%
X122072400Y-49807100D03*
X127072400Y-49807100D03*
%TD*%
%TO.C,C3*%
X79095600Y-51026300D03*
X84095600Y-51026300D03*
%TD*%
D15*
%TO.C,J7*%
X183794400Y-154838400D03*
D14*
X186334400Y-154838400D03*
X188874400Y-154838400D03*
X191414400Y-154838400D03*
%TD*%
D19*
%TO.C,J5*%
X192786200Y-128625600D03*
X192786200Y-123545600D03*
X192786200Y-118465600D03*
X192786200Y-113385600D03*
X192766200Y-108305600D03*
X192766200Y-103225600D03*
X192766200Y-98145600D03*
X192766200Y-93065600D03*
%TD*%
D15*
%TO.C,JP4*%
X140761800Y-111150400D03*
D14*
X143301800Y-111150400D03*
%TD*%
D15*
%TO.C,U7*%
X163017200Y-95859600D03*
D14*
X165557200Y-95859600D03*
X168097200Y-95859600D03*
X170637200Y-95859600D03*
X173177200Y-95859600D03*
X175717200Y-95859600D03*
X178257200Y-95859600D03*
%TD*%
D22*
%TO.C,U4*%
X149908400Y-147338400D03*
X149908400Y-144798400D03*
X123008400Y-132098400D03*
X123008400Y-139718400D03*
X123008400Y-137178400D03*
X123008400Y-142258400D03*
X123008400Y-144798400D03*
X149908400Y-137178400D03*
X149908400Y-134638400D03*
X149908400Y-139718400D03*
X123008400Y-134638400D03*
X149908400Y-142258400D03*
D15*
X149908400Y-149878400D03*
D22*
X123008400Y-147338400D03*
D15*
X123008400Y-149878400D03*
D22*
X149908400Y-132098400D03*
%TD*%
D23*
%TO.C,BT1*%
X166979500Y-65717800D03*
D24*
X166979500Y-45217800D03*
%TD*%
D22*
%TO.C,U3*%
X158118100Y-117433000D03*
X182968100Y-127593000D03*
X182968100Y-125053000D03*
X158118100Y-122513000D03*
X158118100Y-125053000D03*
X158118100Y-127593000D03*
X158118100Y-130133000D03*
D15*
X158118100Y-112353000D03*
D22*
X158118100Y-114893000D03*
D15*
X182968100Y-112353000D03*
D22*
X182968100Y-130133000D03*
X182968100Y-119973000D03*
X182968100Y-117433000D03*
X182968100Y-114893000D03*
X158118100Y-119973000D03*
X182968100Y-122513000D03*
%TD*%
M02*
