M48
; DRILL file {KiCad 9.0.1} date 2025-08-23T19:16:14+0300
; FORMAT={-:-/ absolute / inch / decimal}
; #@! TF.CreationDate,2025-08-23T19:16:14+03:00
; #@! TF.GenerationSoftware,Kicad,Pcbnew,9.0.1
; #@! TF.FileFunction,Plated,1,2,PTH
FMAT,2
INCH
; #@! TA.AperFunction,Plated,PTH,ViaDrill
T1C0.0150
; #@! TA.AperFunction,Plated,PTH,ComponentDrill
T2C0.0280
; #@! TA.AperFunction,Plated,PTH,ComponentDrill
T3C0.0335
; #@! TA.AperFunction,Plated,PTH,ComponentDrill
T4C0.0394
; #@! TA.AperFunction,Plated,PTH,ComponentDrill
T5C0.0551
; #@! TA.AperFunction,Plated,PTH,ComponentDrill
T6C0.0709
%
G90
G05
T1
X3.0043Y-2.1435
X3.1447Y-2.7217
X3.3535Y-3.2783
X3.4055Y-3.2611
X3.4527Y-3.0514
X3.5039Y-2.5219
X3.6949Y-5.3682
X3.7103Y-2.9811
X3.7252Y-5.1916
X3.7252Y-5.3987
X3.8032Y-5.0184
X3.8433Y-1.9886
X4.0098Y-2.7249
X4.063Y-2.3024
X4.1168Y-3.8005
X4.2974Y-3.6014
X4.3241Y-2.4285
X4.3486Y-5.3466
X4.4453Y-3.0367
X4.4663Y-3.6594
X4.4752Y-3.7952
X4.5913Y-3.7895
X4.6237Y-5.2524
X4.6869Y-2.0361
X4.7028Y-3.9506
X4.7044Y-2.4416
X4.7586Y-5.0676
X4.8117Y-4.0413
X4.818Y-3.54
X4.888Y-3.3082
X4.986Y-3.202
X4.9962Y-4.1005
X5.0185Y-2.2818
X5.0769Y-4.1264
X5.1833Y-4.1719
X5.2742Y-5.8011
X5.3331Y-4.921
X5.341Y-3.0589
X5.3729Y-3.6014
X5.4281Y-3.9858
X5.47Y-4.04
X5.478Y-3.966
X5.4967Y-3.0147
X5.4967Y-3.1289
X5.507Y-3.7387
X5.5611Y-3.7894
X5.5726Y-3.9237
X5.5957Y-3.3307
X5.6088Y-3.0166
X5.6308Y-4.6742
X5.6342Y-3.1008
X5.6417Y-3.8858
X5.6452Y-3.956
X5.6507Y-2.3633
X5.655Y-4.0449
X5.6996Y-4.3552
X5.72Y-4.9472
X5.733Y-3.4228
X5.7596Y-3.7782
X5.7644Y-2.1352
X5.7647Y-4.3964
X5.7647Y-3.8505
X5.7663Y-2.8293
X5.7737Y-3.6001
X5.7743Y-3.7356
X5.8205Y-3.5769
X5.8245Y-3.7783
X5.8252Y-4.0603
X5.8311Y-4.3969
X5.8753Y-3.945
X5.876Y-3.564
X5.8829Y-4.1949
X5.8846Y-3.749
X5.8928Y-2.7824
X5.8971Y-3.8565
X5.9Y-3.9164
X5.908Y-3.364
X5.9102Y-4.0671
X5.9393Y-3.6037
X5.9678Y-3.7895
X5.973Y-2.4285
X5.973Y-3.4701
X5.9743Y-3.8988
X5.9755Y-3.8533
X6.01Y-3.364
X6.0442Y-3.9876
X6.0442Y-4.4812
X6.0744Y-3.7105
X6.0748Y-3.5318
X6.0765Y-4.8354
X6.0829Y-3.7493
X6.0878Y-3.8625
X6.0994Y-4.3685
X6.1036Y-3.9412
X6.1224Y-3.7922
X6.1311Y-3.7018
X6.2232Y-4.1937
X6.2233Y-3.8399
X6.228Y-5.346
X6.3318Y-3.5686
X6.3716Y-3.0344
X6.3716Y-3.4789
X6.3716Y-3.6201
X6.3987Y-5.4807
X6.4595Y-3.942
X6.516Y-4.704
X6.5813Y-3.7037
X6.636Y-5.7613
X6.6683Y-3.9432
X6.6766Y-5.512
X6.7789Y-3.8399
X6.8005Y-3.7392
X6.8005Y-3.9124
X6.837Y-3.7435
X6.837Y-3.884
X6.956Y-3.452
X6.965Y-1.842
X6.9843Y-3.8962
X6.992Y-3.336
X7.0789Y-3.8399
X7.0916Y-2.3138
X7.1134Y-3.8947
X7.137Y-2.5804
X7.138Y-2.0256
X7.1534Y-3.9966
X7.161Y-3.8194
X7.1655Y-3.0182
X7.1846Y-3.1853
X7.2223Y-2.7974
X7.2286Y-3.056
X7.2501Y-2.8585
X7.2632Y-3.7084
X7.4101Y-3.8947
X7.433Y-2.6768
X7.4481Y-3.3381
X7.5158Y-4.1485
X7.5159Y-5.6003
X7.5534Y-5.4319
T2
X4.197Y-3.353
X4.197Y-4.0415
X4.3978Y-3.416
X4.3978Y-4.1045
T3
X6.3318Y-1.9092
X6.3318Y-2.7163
T4
X3.784Y-4.444
X3.784Y-4.544
X3.784Y-4.644
X4.258Y-4.448
X4.258Y-4.548
X4.258Y-4.648
X4.902Y-5.662
X4.9115Y-4.5039
X4.9115Y-4.6039
X4.9115Y-4.7039
X4.9115Y-4.8039
X4.9115Y-4.9039
X4.9115Y-5.0039
X4.9115Y-5.1039
X4.9115Y-5.2039
X5.002Y-5.662
X5.102Y-5.662
X5.202Y-5.662
X5.302Y-5.662
X5.402Y-5.662
X5.502Y-5.662
X5.806Y-5.666
X5.906Y-5.666
X5.9705Y-4.5039
X5.9705Y-4.6039
X5.9705Y-4.7039
X5.9705Y-4.8039
X5.9705Y-4.9039
X5.9705Y-5.0039
X5.9705Y-5.1039
X5.9705Y-5.2039
X6.006Y-5.666
X6.106Y-5.666
X6.2651Y-4.5073
X6.2651Y-4.6073
X6.2651Y-4.7073
X6.2651Y-4.8073
X6.2651Y-4.9073
X6.2651Y-5.0073
X6.2651Y-5.1073
X6.2651Y-5.2073
X7.2435Y-4.5073
X7.2435Y-4.6073
X7.2435Y-4.7073
X7.2435Y-4.8073
X7.2435Y-4.9073
X7.2435Y-5.0073
X7.2435Y-5.1073
X7.2435Y-5.2073
X7.718Y-1.9
X7.718Y-2.0
X7.718Y-2.1
X7.718Y-2.2
X7.718Y-2.3
X7.718Y-2.4
X7.718Y-2.5
X7.718Y-2.6
X8.05Y-5.51
X8.05Y-5.61
X8.05Y-5.71
X8.05Y-5.81
T5
X3.0499Y-3.314
X3.0499Y-3.514
X3.0512Y-3.746
X3.0512Y-3.946
X3.0512Y-4.146
X3.0512Y-4.346
X3.052Y-4.546
X3.052Y-4.746
X3.052Y-4.946
X3.052Y-5.146
X7.6232Y-2.92
X7.6232Y-3.12
X7.6232Y-3.32
X7.6232Y-3.52
X7.624Y-3.72
X7.624Y-3.92
X7.624Y-4.12
X7.624Y-4.32
X7.63Y-4.608
X7.63Y-4.808
X7.63Y-5.008
X7.63Y-5.208
T6
X3.1214Y-5.494
X3.1214Y-5.6594
X3.1214Y-5.8247
X3.3379Y-5.494
X3.3379Y-5.6594
X3.3379Y-5.8247
M30
