%TF.GenerationSoftware,KiCad,Pcbnew,9.0.1*%
%TF.CreationDate,2025-08-26T10:13:58+03:00*%
%TF.ProjectId,Control_board,436f6e74-726f-46c5-9f62-6f6172642e6b,rev?*%
%TF.SameCoordinates,Original*%
%TF.FileFunction,Soldermask,Top*%
%TF.FilePolarity,Negative*%
%FSLAX46Y46*%
G04 Gerber Fmt 4.6, Leading zero omitted, Abs format (unit mm)*
G04 Created by KiCad (PCBNEW 9.0.1) date 2025-08-26 10:13:58*
%MOMM*%
%LPD*%
G01*
G04 APERTURE LIST*
G04 Aperture macros list*
%AMRoundRect*
0 Rectangle with rounded corners*
0 $1 Rounding radius*
0 $2 $3 $4 $5 $6 $7 $8 $9 X,Y pos of 4 corners*
0 Add a 4 corners polygon primitive as box body*
4,1,4,$2,$3,$4,$5,$6,$7,$8,$9,$2,$3,0*
0 Add four circle primitives for the rounded corners*
1,1,$1+$1,$2,$3*
1,1,$1+$1,$4,$5*
1,1,$1+$1,$6,$7*
1,1,$1+$1,$8,$9*
0 Add four rect primitives between the rounded corners*
20,1,$1+$1,$2,$3,$4,$5,0*
20,1,$1+$1,$4,$5,$6,$7,0*
20,1,$1+$1,$6,$7,$8,$9,0*
20,1,$1+$1,$8,$9,$2,$3,0*%
G04 Aperture macros list end*
%ADD10C,0.010000*%
%ADD11C,1.226200*%
%ADD12C,1.576200*%
%ADD13C,3.500000*%
%ADD14C,1.700000*%
%ADD15R,1.700000X1.700000*%
%ADD16C,1.500000*%
%ADD17C,3.000000*%
%ADD18RoundRect,0.162500X-0.650000X-0.162500X0.650000X-0.162500X0.650000X0.162500X-0.650000X0.162500X0*%
%ADD19RoundRect,0.250000X0.300000X-2.050000X0.300000X2.050000X-0.300000X2.050000X-0.300000X-2.050000X0*%
%ADD20RoundRect,0.250002X5.149998X-4.449998X5.149998X4.449998X-5.149998X4.449998X-5.149998X-4.449998X0*%
%ADD21RoundRect,0.250000X0.312500X0.625000X-0.312500X0.625000X-0.312500X-0.625000X0.312500X-0.625000X0*%
%ADD22RoundRect,0.250000X0.650000X-0.325000X0.650000X0.325000X-0.650000X0.325000X-0.650000X-0.325000X0*%
%ADD23RoundRect,0.250000X0.325000X0.650000X-0.325000X0.650000X-0.325000X-0.650000X0.325000X-0.650000X0*%
%ADD24R,1.250000X1.000000*%
%ADD25RoundRect,0.243750X0.456250X-0.243750X0.456250X0.243750X-0.456250X0.243750X-0.456250X-0.243750X0*%
%ADD26RoundRect,0.250000X-0.312500X-0.625000X0.312500X-0.625000X0.312500X0.625000X-0.312500X0.625000X0*%
%ADD27RoundRect,0.243750X-0.243750X-0.456250X0.243750X-0.456250X0.243750X0.456250X-0.243750X0.456250X0*%
%ADD28C,1.270000*%
%ADD29R,5.400000X2.900000*%
%ADD30RoundRect,0.250000X-0.325000X-0.650000X0.325000X-0.650000X0.325000X0.650000X-0.325000X0.650000X0*%
%ADD31RoundRect,0.250000X-1.000000X-0.650000X1.000000X-0.650000X1.000000X0.650000X-1.000000X0.650000X0*%
%ADD32R,1.879600X0.533400*%
%ADD33RoundRect,0.250000X0.625000X-0.312500X0.625000X0.312500X-0.625000X0.312500X-0.625000X-0.312500X0*%
%ADD34RoundRect,0.250000X0.550000X-1.250000X0.550000X1.250000X-0.550000X1.250000X-0.550000X-1.250000X0*%
%ADD35C,2.540000*%
%ADD36RoundRect,0.250000X-0.625000X0.312500X-0.625000X-0.312500X0.625000X-0.312500X0.625000X0.312500X0*%
%ADD37C,2.000000*%
%ADD38RoundRect,0.102000X0.500000X0.700000X-0.500000X0.700000X-0.500000X-0.700000X0.500000X-0.700000X0*%
%ADD39RoundRect,0.150000X-0.825000X-0.150000X0.825000X-0.150000X0.825000X0.150000X-0.825000X0.150000X0*%
%ADD40RoundRect,0.250000X-0.650000X0.325000X-0.650000X-0.325000X0.650000X-0.325000X0.650000X0.325000X0*%
%ADD41RoundRect,0.102000X0.700000X-0.500000X0.700000X0.500000X-0.700000X0.500000X-0.700000X-0.500000X0*%
%ADD42RoundRect,0.250000X1.000000X0.650000X-1.000000X0.650000X-1.000000X-0.650000X1.000000X-0.650000X0*%
%ADD43RoundRect,0.102000X-0.901700X-0.266700X0.901700X-0.266700X0.901700X0.266700X-0.901700X0.266700X0*%
%ADD44C,1.600000*%
%ADD45R,2.500000X1.000000*%
%ADD46R,1.000000X1.800000*%
%ADD47R,1.300000X1.500000*%
%ADD48O,1.700000X1.700000*%
%ADD49RoundRect,0.075000X-0.662500X-0.075000X0.662500X-0.075000X0.662500X0.075000X-0.662500X0.075000X0*%
%ADD50RoundRect,0.075000X-0.075000X-0.662500X0.075000X-0.662500X0.075000X0.662500X-0.075000X0.662500X0*%
%ADD51RoundRect,0.102000X0.475000X-1.075000X0.475000X1.075000X-0.475000X1.075000X-0.475000X-1.075000X0*%
%ADD52RoundRect,0.102000X1.625000X-1.075000X1.625000X1.075000X-1.625000X1.075000X-1.625000X-1.075000X0*%
%ADD53R,2.000000X1.600000*%
%ADD54O,2.000000X1.600000*%
G04 APERTURE END LIST*
D10*
%TO.C,J6*%
X80509800Y-149173800D02*
X78057400Y-149173800D01*
X78057400Y-146721400D01*
X80509800Y-146721400D01*
X80509800Y-149173800D01*
G36*
X80509800Y-149173800D02*
G01*
X78057400Y-149173800D01*
X78057400Y-146721400D01*
X80509800Y-146721400D01*
X80509800Y-149173800D01*
G37*
D11*
X85396700Y-147947600D02*
G75*
G02*
X84170500Y-147947600I-613100J0D01*
G01*
X84170500Y-147947600D02*
G75*
G02*
X85396700Y-147947600I613100J0D01*
G01*
X85396700Y-143747600D02*
G75*
G02*
X84170500Y-143747600I-613100J0D01*
G01*
X84170500Y-143747600D02*
G75*
G02*
X85396700Y-143747600I613100J0D01*
G01*
X85396700Y-139547600D02*
G75*
G02*
X84170500Y-139547600I-613100J0D01*
G01*
X84170500Y-139547600D02*
G75*
G02*
X85396700Y-139547600I613100J0D01*
G01*
X79896700Y-143747600D02*
G75*
G02*
X78670500Y-143747600I-613100J0D01*
G01*
X78670500Y-143747600D02*
G75*
G02*
X79896700Y-143747600I613100J0D01*
G01*
X79896700Y-139547600D02*
G75*
G02*
X78670500Y-139547600I-613100J0D01*
G01*
X78670500Y-139547600D02*
G75*
G02*
X79896700Y-139547600I613100J0D01*
G01*
D12*
X72771700Y-147947600D02*
G75*
G02*
X71195500Y-147947600I-788100J0D01*
G01*
X71195500Y-147947600D02*
G75*
G02*
X72771700Y-147947600I788100J0D01*
G01*
X72771700Y-139547600D02*
G75*
G02*
X71195500Y-139547600I-788100J0D01*
G01*
X71195500Y-139547600D02*
G75*
G02*
X72771700Y-139547600I788100J0D01*
G01*
%TD*%
D13*
%TO.C,J8*%
X195565600Y-146157200D03*
X195565600Y-134117200D03*
D14*
X192855600Y-138887200D03*
X192855600Y-141387200D03*
X190855600Y-141387200D03*
D15*
X190855600Y-138887200D03*
%TD*%
D16*
%TO.C,Y1*%
X124268400Y-92456000D03*
X119368400Y-92456000D03*
%TD*%
D17*
%TO.C,H1*%
X204339200Y-45974000D03*
%TD*%
%TO.C,H2*%
X204876400Y-156311600D03*
%TD*%
%TO.C,H3*%
X66526400Y-156311600D03*
%TD*%
%TO.C,H4*%
X65989200Y-45974000D03*
%TD*%
%TO.C,J6*%
X71983600Y-147947600D03*
X71983600Y-139547600D03*
%TD*%
D18*
%TO.C,U1*%
X147594900Y-74309400D03*
X147594900Y-75579400D03*
X147594900Y-76849400D03*
X147594900Y-78119400D03*
X140419900Y-78119400D03*
X140419900Y-76849400D03*
X140419900Y-75579400D03*
X140419900Y-74309400D03*
%TD*%
D19*
%TO.C,U2*%
X113736400Y-58842500D03*
X112036400Y-58842500D03*
D20*
X110336400Y-49692500D03*
D19*
X110336400Y-58842500D03*
X108636400Y-58842500D03*
X106936400Y-58842500D03*
%TD*%
D21*
%TO.C,R2*%
X136109900Y-72669400D03*
X133184900Y-72669400D03*
%TD*%
D22*
%TO.C,C6*%
X134137400Y-48566600D03*
X134137400Y-45616600D03*
%TD*%
D21*
%TO.C,R18*%
X182767700Y-84785200D03*
X179842700Y-84785200D03*
%TD*%
D23*
%TO.C,C1*%
X154040100Y-73482200D03*
X151090100Y-73482200D03*
%TD*%
D24*
%TO.C,SW1*%
X158240500Y-72390000D03*
X165990500Y-72390000D03*
%TD*%
D15*
%TO.C,JP3*%
X140817600Y-105816400D03*
D14*
X143357600Y-105816400D03*
%TD*%
D25*
%TO.C,D3*%
X125907800Y-61309300D03*
X125907800Y-59434300D03*
%TD*%
D26*
%TO.C,R36*%
X162483300Y-148640800D03*
X165408300Y-148640800D03*
%TD*%
D27*
%TO.C,D11*%
X170235400Y-140512800D03*
X172110400Y-140512800D03*
%TD*%
D26*
%TO.C,R43*%
X153568400Y-150114000D03*
X156493400Y-150114000D03*
%TD*%
%TO.C,R30*%
X106995500Y-115316000D03*
X109920500Y-115316000D03*
%TD*%
D28*
%TO.C,TH1*%
X95581400Y-100114200D03*
X100681400Y-101714200D03*
%TD*%
D21*
%TO.C,R5*%
X118607300Y-142748000D03*
X115682300Y-142748000D03*
%TD*%
D29*
%TO.C,L1*%
X94386400Y-56052500D03*
X94386400Y-46152500D03*
%TD*%
D30*
%TO.C,C11*%
X153564800Y-155244800D03*
X156514800Y-155244800D03*
%TD*%
D15*
%TO.C,JP1*%
X90220800Y-108966000D03*
D14*
X90220800Y-111506000D03*
X90220800Y-114046000D03*
%TD*%
D15*
%TO.C,J1*%
X196037200Y-48260000D03*
D14*
X196037200Y-50800000D03*
X196037200Y-53340000D03*
X196037200Y-55880000D03*
X196037200Y-58420000D03*
X196037200Y-60960000D03*
X196037200Y-63500000D03*
X196037200Y-66040000D03*
%TD*%
D31*
%TO.C,D6*%
X105372400Y-100914200D03*
X109372400Y-100914200D03*
%TD*%
D32*
%TO.C,U8*%
X138639500Y-52171600D03*
X138639500Y-53441600D03*
X138639500Y-54711600D03*
X138639500Y-55981600D03*
X138639500Y-57251600D03*
X138639500Y-58521600D03*
X138639500Y-59791600D03*
X138639500Y-61061600D03*
X138639500Y-62331600D03*
X138639500Y-63601600D03*
X148113700Y-63601600D03*
X148113700Y-62331600D03*
X148113700Y-61061600D03*
X148113700Y-59791600D03*
X148113700Y-58521600D03*
X148113700Y-57251600D03*
X148113700Y-55981600D03*
X148113700Y-54711600D03*
X148113700Y-53441600D03*
X148113700Y-52171600D03*
%TD*%
D15*
%TO.C,JP6*%
X123799600Y-105359200D03*
D14*
X126339600Y-105359200D03*
X128879600Y-105359200D03*
%TD*%
D15*
%TO.C,JP2*%
X99771200Y-108661200D03*
D14*
X99771200Y-111201200D03*
X99771200Y-113741200D03*
%TD*%
D26*
%TO.C,R35*%
X178318700Y-135077200D03*
X181243700Y-135077200D03*
%TD*%
D33*
%TO.C,R4*%
X120192800Y-61694300D03*
X120192800Y-58769300D03*
%TD*%
D28*
%TO.C,TH2*%
X95581400Y-82626200D03*
X100681400Y-84226200D03*
%TD*%
D21*
%TO.C,R12*%
X182767700Y-56845200D03*
X179842700Y-56845200D03*
%TD*%
%TO.C,R39*%
X165140100Y-135269700D03*
X162215100Y-135269700D03*
%TD*%
D26*
%TO.C,R45*%
X114241200Y-150469600D03*
X117166200Y-150469600D03*
%TD*%
%TO.C,R29*%
X107057000Y-121107200D03*
X109982000Y-121107200D03*
%TD*%
D27*
%TO.C,D13*%
X110371600Y-142951200D03*
X112246600Y-142951200D03*
%TD*%
D34*
%TO.C,C4*%
X105054400Y-73335500D03*
X105054400Y-68935500D03*
%TD*%
D33*
%TO.C,R32*%
X133858000Y-54842600D03*
X133858000Y-51917600D03*
%TD*%
D26*
%TO.C,R24*%
X71232300Y-64668400D03*
X74157300Y-64668400D03*
%TD*%
D35*
%TO.C,J4*%
X77673200Y-95554800D03*
X77673200Y-100634800D03*
X77673200Y-105714800D03*
X77673200Y-110794800D03*
X77693200Y-115874800D03*
X77693200Y-120954800D03*
X77693200Y-126034800D03*
X77693200Y-131114800D03*
%TD*%
D36*
%TO.C,R6*%
X115976400Y-67354500D03*
X115976400Y-70279500D03*
%TD*%
D37*
%TO.C,SW9*%
X143007400Y-121854400D03*
X149507400Y-121854400D03*
X143007400Y-126354400D03*
X149507400Y-126354400D03*
%TD*%
D26*
%TO.C,R33*%
X184374600Y-135077200D03*
X187299600Y-135077200D03*
%TD*%
D31*
%TO.C,D5*%
X105372400Y-83426200D03*
X109372400Y-83426200D03*
%TD*%
D22*
%TO.C,C9*%
X125730000Y-88040000D03*
X125730000Y-85090000D03*
%TD*%
D26*
%TO.C,R50*%
X144575800Y-116128800D03*
X147500800Y-116128800D03*
%TD*%
D38*
%TO.C,T1*%
X92781200Y-137210800D03*
X90881200Y-137210800D03*
X91831200Y-139410800D03*
%TD*%
D21*
%TO.C,R41*%
X118719600Y-137769600D03*
X115794600Y-137769600D03*
%TD*%
%TO.C,R44*%
X118618000Y-132638800D03*
X115693000Y-132638800D03*
%TD*%
%TO.C,R7*%
X154279600Y-51866800D03*
X151354600Y-51866800D03*
%TD*%
D39*
%TO.C,U10*%
X94807000Y-89789000D03*
X94807000Y-91059000D03*
X94807000Y-92329000D03*
X94807000Y-93599000D03*
X99757000Y-93599000D03*
X99757000Y-92329000D03*
X99757000Y-91059000D03*
X99757000Y-89789000D03*
%TD*%
D26*
%TO.C,R28*%
X88210200Y-121158000D03*
X91135200Y-121158000D03*
%TD*%
%TO.C,R47*%
X109677200Y-137464800D03*
X112602200Y-137464800D03*
%TD*%
D24*
%TO.C,SW6*%
X111842400Y-155702000D03*
X119592400Y-155702000D03*
%TD*%
D15*
%TO.C,U9*%
X149301200Y-87884000D03*
D14*
X151841200Y-87884000D03*
X154381200Y-87884000D03*
X156921200Y-87884000D03*
%TD*%
D27*
%TO.C,D8*%
X88572100Y-126644400D03*
X90447100Y-126644400D03*
%TD*%
D21*
%TO.C,R11*%
X182767700Y-51257200D03*
X179842700Y-51257200D03*
%TD*%
D26*
%TO.C,R26*%
X172335000Y-149910800D03*
X175260000Y-149910800D03*
%TD*%
D37*
%TO.C,SW8*%
X132110800Y-121854400D03*
X138610800Y-121854400D03*
X132110800Y-126354400D03*
X138610800Y-126354400D03*
%TD*%
D26*
%TO.C,R48*%
X121890600Y-116535200D03*
X124815600Y-116535200D03*
%TD*%
D33*
%TO.C,R20*%
X109880400Y-92282200D03*
X109880400Y-89357200D03*
%TD*%
D36*
%TO.C,R21*%
X90068400Y-89357200D03*
X90068400Y-92282200D03*
%TD*%
D35*
%TO.C,J3*%
X77466800Y-84176800D03*
X77466800Y-89256800D03*
%TD*%
D21*
%TO.C,R38*%
X156544200Y-139750800D03*
X153619200Y-139750800D03*
%TD*%
D30*
%TO.C,C12*%
X153719000Y-134924800D03*
X156669000Y-134924800D03*
%TD*%
D37*
%TO.C,SW7*%
X120092400Y-121854400D03*
X126592400Y-121854400D03*
X120092400Y-126354400D03*
X126592400Y-126354400D03*
%TD*%
D40*
%TO.C,C8*%
X125576300Y-96135600D03*
X125576300Y-99085600D03*
%TD*%
D21*
%TO.C,R16*%
X182767700Y-74117200D03*
X179842700Y-74117200D03*
%TD*%
D35*
%TO.C,J2*%
X192790000Y-86645100D03*
X192790000Y-81565100D03*
X192790000Y-76485100D03*
X192790000Y-71405100D03*
%TD*%
D15*
%TO.C,JP5*%
X124053600Y-111506000D03*
D14*
X126593600Y-111506000D03*
X129133600Y-111506000D03*
%TD*%
D24*
%TO.C,SW4*%
X160005800Y-155143200D03*
X167755800Y-155143200D03*
%TD*%
D21*
%TO.C,R3*%
X136109900Y-77749400D03*
X133184900Y-77749400D03*
%TD*%
D35*
%TO.C,J9*%
X90171300Y-146053200D03*
X95251300Y-146053200D03*
%TD*%
D26*
%TO.C,R34*%
X184222200Y-140919200D03*
X187147200Y-140919200D03*
%TD*%
D21*
%TO.C,R14*%
X182767700Y-68529200D03*
X179842700Y-68529200D03*
%TD*%
D15*
%TO.C,U11*%
X67183000Y-52882800D03*
D14*
X67183000Y-55422800D03*
X67183000Y-57962800D03*
X67183000Y-60502800D03*
%TD*%
D41*
%TO.C,T2*%
X92979600Y-134249200D03*
X92979600Y-132349200D03*
X90779600Y-133299200D03*
%TD*%
D27*
%TO.C,D9*%
X94234000Y-126898400D03*
X96109000Y-126898400D03*
%TD*%
D42*
%TO.C,D10*%
X83349600Y-61745100D03*
X79349600Y-61745100D03*
%TD*%
D26*
%TO.C,R25*%
X102394100Y-150469600D03*
X105319100Y-150469600D03*
%TD*%
D43*
%TO.C,U12*%
X164947600Y-77114400D03*
X164947600Y-78384400D03*
X164947600Y-79654400D03*
X164947600Y-80924400D03*
X164947600Y-82194400D03*
X164947600Y-83464400D03*
X164947600Y-84734400D03*
X164947600Y-86004400D03*
X174498000Y-86004400D03*
X174498000Y-84734400D03*
X174498000Y-83464400D03*
X174498000Y-82194400D03*
X174498000Y-80924400D03*
X174498000Y-79654400D03*
X174498000Y-78384400D03*
X174498000Y-77114400D03*
%TD*%
D25*
%TO.C,D4*%
X115976400Y-74089500D03*
X115976400Y-72214500D03*
%TD*%
D44*
%TO.C,C2*%
X122072400Y-49807100D03*
X127072400Y-49807100D03*
%TD*%
D26*
%TO.C,R23*%
X71638700Y-48488600D03*
X74563700Y-48488600D03*
%TD*%
%TO.C,R46*%
X102920800Y-137464800D03*
X105845800Y-137464800D03*
%TD*%
D21*
%TO.C,R37*%
X172444600Y-135178800D03*
X169519600Y-135178800D03*
%TD*%
D44*
%TO.C,C3*%
X79095600Y-51026300D03*
X84095600Y-51026300D03*
%TD*%
D15*
%TO.C,J7*%
X183794400Y-154838400D03*
D14*
X186334400Y-154838400D03*
X188874400Y-154838400D03*
X191414400Y-154838400D03*
%TD*%
D35*
%TO.C,J5*%
X192786200Y-128625600D03*
X192786200Y-123545600D03*
X192786200Y-118465600D03*
X192786200Y-113385600D03*
X192766200Y-108305600D03*
X192766200Y-103225600D03*
X192766200Y-98145600D03*
X192766200Y-93065600D03*
%TD*%
D45*
%TO.C,U14*%
X144375200Y-147630800D03*
X144375200Y-145630800D03*
X144375200Y-143630800D03*
X144375200Y-141630800D03*
X144375200Y-139630800D03*
X144375200Y-137630800D03*
X144375200Y-135630800D03*
X144375200Y-133630800D03*
D46*
X141775200Y-132130800D03*
X139775200Y-132130800D03*
X137775200Y-132130800D03*
X135775200Y-132130800D03*
X133775200Y-132130800D03*
X131775200Y-132130800D03*
D45*
X129175200Y-133630800D03*
X129175200Y-135630800D03*
X129175200Y-137630800D03*
X129175200Y-139630800D03*
X129175200Y-141630800D03*
X129175200Y-143630800D03*
X129175200Y-145630800D03*
X129175200Y-147630800D03*
%TD*%
D26*
%TO.C,R27*%
X104150700Y-108051600D03*
X107075700Y-108051600D03*
%TD*%
D47*
%TO.C,D7*%
X71841200Y-69464000D03*
X66741200Y-69464000D03*
X66741200Y-78364000D03*
X71841200Y-78364000D03*
%TD*%
D15*
%TO.C,JP4*%
X140761800Y-111150400D03*
D14*
X143301800Y-111150400D03*
%TD*%
D27*
%TO.C,D12*%
X103813800Y-143213200D03*
X105688800Y-143213200D03*
%TD*%
D26*
%TO.C,R42*%
X153629900Y-144780000D03*
X156554900Y-144780000D03*
%TD*%
D15*
%TO.C,U7*%
X163017200Y-95859600D03*
D14*
X165557200Y-95859600D03*
X168097200Y-95859600D03*
X170637200Y-95859600D03*
X173177200Y-95859600D03*
X175717200Y-95859600D03*
X178257200Y-95859600D03*
%TD*%
D26*
%TO.C,R10*%
X95097600Y-121056400D03*
X98022600Y-121056400D03*
%TD*%
%TO.C,R49*%
X133653800Y-116281200D03*
X136578800Y-116281200D03*
%TD*%
D24*
%TO.C,SW5*%
X160005800Y-141986000D03*
X167755800Y-141986000D03*
%TD*%
D26*
%TO.C,R15*%
X101407500Y-121107200D03*
X104332500Y-121107200D03*
%TD*%
D34*
%TO.C,C5*%
X83718400Y-72225500D03*
X83718400Y-67825500D03*
%TD*%
D48*
%TO.C,U4*%
X149908400Y-147338400D03*
X149908400Y-144798400D03*
X123008400Y-132098400D03*
X123008400Y-139718400D03*
X123008400Y-137178400D03*
X123008400Y-142258400D03*
X123008400Y-144798400D03*
X149908400Y-137178400D03*
X149908400Y-134638400D03*
X149908400Y-139718400D03*
X123008400Y-134638400D03*
X149908400Y-142258400D03*
D15*
X149908400Y-149878400D03*
D48*
X123008400Y-147338400D03*
D15*
X123008400Y-149878400D03*
D48*
X149908400Y-132098400D03*
%TD*%
D24*
%TO.C,SW3*%
X170398400Y-155143200D03*
X178148400Y-155143200D03*
%TD*%
%TO.C,SW2*%
X100091200Y-155702000D03*
X107841200Y-155702000D03*
%TD*%
D21*
%TO.C,R9*%
X182767700Y-45669200D03*
X179842700Y-45669200D03*
%TD*%
D49*
%TO.C,U6*%
X133048300Y-89807600D03*
X133048300Y-90307600D03*
X133048300Y-90807600D03*
X133048300Y-91307600D03*
X133048300Y-91807600D03*
X133048300Y-92307600D03*
X133048300Y-92807600D03*
X133048300Y-93307600D03*
X133048300Y-93807600D03*
X133048300Y-94307600D03*
X133048300Y-94807600D03*
X133048300Y-95307600D03*
D50*
X134460800Y-96720100D03*
X134960800Y-96720100D03*
X135460800Y-96720100D03*
X135960800Y-96720100D03*
X136460800Y-96720100D03*
X136960800Y-96720100D03*
X137460800Y-96720100D03*
X137960800Y-96720100D03*
X138460800Y-96720100D03*
X138960800Y-96720100D03*
X139460800Y-96720100D03*
X139960800Y-96720100D03*
D49*
X141373300Y-95307600D03*
X141373300Y-94807600D03*
X141373300Y-94307600D03*
X141373300Y-93807600D03*
X141373300Y-93307600D03*
X141373300Y-92807600D03*
X141373300Y-92307600D03*
X141373300Y-91807600D03*
X141373300Y-91307600D03*
X141373300Y-90807600D03*
X141373300Y-90307600D03*
X141373300Y-89807600D03*
D50*
X139960800Y-88395100D03*
X139460800Y-88395100D03*
X138960800Y-88395100D03*
X138460800Y-88395100D03*
X137960800Y-88395100D03*
X137460800Y-88395100D03*
X136960800Y-88395100D03*
X136460800Y-88395100D03*
X135960800Y-88395100D03*
X135460800Y-88395100D03*
X134960800Y-88395100D03*
X134460800Y-88395100D03*
%TD*%
D42*
%TO.C,D2*%
X96481400Y-61897500D03*
X92481400Y-61897500D03*
%TD*%
D26*
%TO.C,R31*%
X110032800Y-108000800D03*
X112957800Y-108000800D03*
%TD*%
D33*
%TO.C,R22*%
X109880400Y-97485200D03*
X109880400Y-94560200D03*
%TD*%
D31*
%TO.C,D1*%
X120834400Y-65961500D03*
X124834400Y-65961500D03*
%TD*%
D21*
%TO.C,R8*%
X154264500Y-57886600D03*
X151339500Y-57886600D03*
%TD*%
D26*
%TO.C,R19*%
X159535400Y-79044800D03*
X162460400Y-79044800D03*
%TD*%
D51*
%TO.C,U13*%
X93102400Y-72976300D03*
X95402400Y-72976300D03*
X97702400Y-72976300D03*
D52*
X95402400Y-67176300D03*
%TD*%
D30*
%TO.C,C10*%
X103050400Y-90819700D03*
X106000400Y-90819700D03*
%TD*%
D53*
%TO.C,BT1*%
X166979500Y-65717800D03*
D54*
X166979500Y-45217800D03*
%TD*%
D21*
%TO.C,R13*%
X182767700Y-62941200D03*
X179842700Y-62941200D03*
%TD*%
%TO.C,R17*%
X182767700Y-79197200D03*
X179842700Y-79197200D03*
%TD*%
D48*
%TO.C,U3*%
X158118100Y-117433000D03*
X182968100Y-127593000D03*
X182968100Y-125053000D03*
X158118100Y-122513000D03*
X158118100Y-125053000D03*
X158118100Y-127593000D03*
X158118100Y-130133000D03*
D15*
X158118100Y-112353000D03*
D48*
X158118100Y-114893000D03*
D15*
X182968100Y-112353000D03*
D48*
X182968100Y-130133000D03*
X182968100Y-119973000D03*
X182968100Y-117433000D03*
X182968100Y-114893000D03*
X158118100Y-119973000D03*
X182968100Y-122513000D03*
%TD*%
D26*
%TO.C,R1*%
X151214900Y-77749400D03*
X154139900Y-77749400D03*
%TD*%
D30*
%TO.C,C7*%
X151392900Y-63449200D03*
X154342900Y-63449200D03*
%TD*%
D33*
%TO.C,R40*%
X133908800Y-60695300D03*
X133908800Y-57770300D03*
%TD*%
M02*
