M48
; DRILL file {KiCad 9.0.1} date 2025-08-26T10:14:01+0300
; FORMAT={-:-/ absolute / inch / decimal}
; #@! TF.CreationDate,2025-08-26T10:14:01+03:00
; #@! TF.GenerationSoftware,Kicad,Pcbnew,9.0.1
; #@! TF.FileFunction,Plated,1,2,PTH
FMAT,2
INCH
; #@! TA.AperFunction,Plated,PTH,ViaDrill
T1C0.0150
; #@! TA.AperFunction,Plated,PTH,ComponentDrill
T2C0.0280
; #@! TA.AperFunction,Plated,PTH,ComponentDrill
T3C0.0315
; #@! TA.AperFunction,Plated,PTH,ComponentDrill
T4C0.0335
; #@! TA.AperFunction,Plated,PTH,ComponentDrill
T5C0.0362
; #@! TA.AperFunction,Plated,PTH,ComponentDrill
T6C0.0394
; #@! TA.AperFunction,Plated,PTH,ComponentDrill
T7C0.0433
; #@! TA.AperFunction,Plated,PTH,ComponentDrill
T8C0.0551
; #@! TA.AperFunction,Plated,PTH,ComponentDrill
T9C0.0709
; #@! TA.AperFunction,Plated,PTH,ComponentDrill
T10C0.0917
%
G90
G05
T1
X2.6972Y-2.7562
X2.9971Y-1.8825
X3.1102Y-2.7533
X3.1464Y-4.5589
X3.2242Y-2.6106
X3.272Y-4.104
X3.4054Y-2.4344
X3.4054Y-2.7942
X3.4054Y-3.4774
X3.4054Y-5.0863
X3.4989Y-4.3071
X3.682Y-2.945
X3.6824Y-4.0342
X3.7006Y-3.4673
X3.7197Y-2.4323
X3.7445Y-3.4431
X3.8171Y-4.7744
X3.8614Y-5.2812
X3.8636Y-4.6493
X3.9949Y-5.6686
X4.0001Y-3.5491
X4.0111Y-3.6935
X4.0138Y-2.9199
X4.0423Y-3.5164
X4.1032Y-3.5653
X4.1299Y-4.533
X4.1324Y-3.5865
X4.1923Y-2.73
X4.2369Y-3.2929
X4.2369Y-3.9507
X4.2437Y-6.0715
X4.2543Y-3.835
X4.2716Y-5.6686
X4.2725Y-4.7594
X4.2909Y-5.2318
X4.377Y-2.417
X4.3948Y-4.2543
X4.5861Y-2.3193
X4.6082Y-2.0281
X4.6124Y-5.2317
X4.6267Y-2.9185
X4.6668Y-3.8443
X4.7702Y-6.1443
X4.8308Y-2.6049
X4.858Y-3.3387
X4.858Y-3.9212
X4.876Y-4.8356
X5.008Y-3.774
X5.0126Y-5.2694
X5.0436Y-2.465
X5.0469Y-3.5904
X5.135Y-3.774
X5.1691Y-5.1145
X5.1755Y-3.6056
X5.1925Y-5.7011
X5.1973Y-3.8548
X5.2256Y-3.7829
X5.2312Y-3.9085
X5.236Y-3.4315
X5.2432Y-3.9622
X5.25Y-3.344
X5.2591Y-4.7742
X5.2658Y-3.897
X5.2747Y-3.8531
X5.2916Y-3.7161
X5.3242Y-3.5605
X5.3262Y-3.6351
X5.331Y-3.7356
X5.3543Y-4.1055
X5.3571Y-1.7944
X5.3725Y-3.2911
X5.4011Y-4.212
X5.4022Y-3.22
X5.4025Y-3.5655
X5.4286Y-3.299
X5.4403Y-3.7568
X5.471Y-2.9396
X5.4811Y-4.1649
X5.5201Y-4.0244
X5.5203Y-2.061
X5.5343Y-3.4924
X5.5629Y-4.5547
X5.5632Y-4.6493
X5.584Y-3.356
X5.5951Y-3.2915
X5.608Y-3.8
X5.6192Y-4.0398
X5.6439Y-3.6341
X5.6458Y-3.5602
X5.663Y-3.5964
X5.718Y-3.88
X5.7275Y-3.6222
X5.7436Y-2.3283
X5.7471Y-3.5104
X5.7668Y-4.1333
X5.7668Y-6.1725
X5.7668Y-3.4761
X5.8843Y-2.9018
X5.9063Y-4.2065
X5.9087Y-2.9924
X5.956Y-3.0074
X5.9805Y-2.1397
X6.0235Y-2.5005
X6.0619Y-2.3528
X6.0619Y-5.3988
X6.1723Y-3.8857
X6.208Y-3.9607
X6.2095Y-4.0308
X6.2298Y-6.0926
X6.2312Y-5.8691
X6.2337Y-2.7562
X6.237Y-5.3231
X6.2607Y-6.0584
X6.2791Y-3.966
X6.3571Y-3.2061
X6.4707Y-2.8493
X6.5506Y-3.1479
X6.5522Y-3.8171
X6.5539Y-3.0979
X6.554Y-3.3767
X6.5606Y-3.2136
X6.5631Y-3.0288
X6.618Y-3.9375
X6.6279Y-3.7217
X6.6489Y-6.1256
X6.6523Y-2.3193
X6.6561Y-5.5669
X6.9314Y-6.1055
X6.9328Y-2.8274
X6.9378Y-3.3229
X7.0397Y-3.1771
X7.06Y-4.372
X7.1604Y-3.8315
X7.2064Y-3.8857
X7.2426Y-1.8939
X7.2499Y-3.848
X7.3981Y-3.9744
X7.4474Y-4.3018
X7.4477Y-3.8479
X7.4876Y-3.2895
X7.5112Y-3.986
X7.5126Y-3.5965
T2
X3.763Y-3.253
X3.763Y-3.9415
X3.9638Y-3.316
X3.9638Y-4.0045
T3
X3.114Y-2.0089
X3.3109Y-2.0089
X4.6995Y-3.64
X4.806Y-1.9609
X4.8925Y-3.64
X5.0029Y-1.9609
T4
X6.574Y-1.7802
X6.574Y-2.5873
T5
X7.514Y-5.468
X7.514Y-5.5664
X7.5927Y-5.468
X7.5927Y-5.5664
T6
X2.645Y-2.082
X2.645Y-2.182
X2.645Y-2.282
X2.645Y-2.382
X3.552Y-4.29
X3.552Y-4.39
X3.552Y-4.49
X3.928Y-4.278
X3.928Y-4.378
X3.928Y-4.478
X4.8429Y-5.2007
X4.8429Y-5.3007
X4.8429Y-5.4007
X4.8429Y-5.5007
X4.8429Y-5.6007
X4.8429Y-5.7007
X4.8429Y-5.8007
X4.8429Y-5.9007
X4.874Y-4.148
X4.884Y-4.39
X4.974Y-4.148
X4.984Y-4.39
X5.074Y-4.148
X5.084Y-4.39
X5.5418Y-4.376
X5.544Y-4.166
X5.6418Y-4.376
X5.644Y-4.166
X5.878Y-3.46
X5.9019Y-5.2007
X5.9019Y-5.3007
X5.9019Y-5.4007
X5.9019Y-5.5007
X5.9019Y-5.6007
X5.9019Y-5.7007
X5.9019Y-5.8007
X5.9019Y-5.9007
X5.978Y-3.46
X6.078Y-3.46
X6.178Y-3.46
X6.2251Y-4.4233
X6.2251Y-4.5233
X6.2251Y-4.6233
X6.2251Y-4.7233
X6.2251Y-4.8233
X6.2251Y-4.9233
X6.2251Y-5.0233
X6.2251Y-5.1233
X6.418Y-3.774
X6.518Y-3.774
X6.618Y-3.774
X6.718Y-3.774
X6.818Y-3.774
X6.918Y-3.774
X7.018Y-3.774
X7.2035Y-4.4233
X7.2035Y-4.5233
X7.2035Y-4.6233
X7.2035Y-4.7233
X7.2035Y-4.8233
X7.2035Y-4.9233
X7.2035Y-5.0233
X7.2035Y-5.1233
X7.236Y-6.096
X7.336Y-6.096
X7.436Y-6.096
X7.536Y-6.096
X7.718Y-1.9
X7.718Y-2.0
X7.718Y-2.1
X7.718Y-2.2
X7.718Y-2.3
X7.718Y-2.4
X7.718Y-2.5
X7.718Y-2.6
T7
X4.728Y-4.7974
X4.728Y-4.9746
X4.984Y-4.7974
X4.984Y-4.9746
X5.2012Y-4.7974
X5.2012Y-4.9746
X5.4571Y-4.7974
X5.4571Y-4.9746
X5.6302Y-4.7974
X5.6302Y-4.9746
X5.8861Y-4.7974
X5.8861Y-4.9746
T8
X3.0499Y-3.314
X3.0499Y-3.514
X3.058Y-3.762
X3.058Y-3.962
X3.058Y-4.162
X3.058Y-4.362
X3.0588Y-4.562
X3.0588Y-4.762
X3.0588Y-4.962
X3.0588Y-5.162
X3.5501Y-5.7501
X3.7501Y-5.7501
X7.5892Y-3.664
X7.5892Y-3.864
X7.5892Y-4.064
X7.5892Y-4.264
X7.59Y-4.464
X7.59Y-4.664
X7.59Y-4.864
X7.59Y-5.064
X7.5902Y-2.8112
X7.5902Y-3.0112
X7.5902Y-3.2112
X7.5902Y-3.4112
T9
X3.1214Y-5.494
X3.1214Y-5.6594
X3.1214Y-5.8247
X3.3379Y-5.494
X3.3379Y-5.6594
X3.3379Y-5.8247
T10
X7.6994Y-5.2802
X7.6994Y-5.7542
M30
