%TF.GenerationSoftware,KiCad,Pcbnew,9.0.1*%
%TF.CreationDate,2025-08-23T19:16:10+03:00*%
%TF.ProjectId,Control_board,436f6e74-726f-46c5-9f62-6f6172642e6b,rev?*%
%TF.SameCoordinates,Original*%
%TF.FileFunction,Soldermask,Top*%
%TF.FilePolarity,Negative*%
%FSLAX46Y46*%
G04 Gerber Fmt 4.6, Leading zero omitted, Abs format (unit mm)*
G04 Created by KiCad (PCBNEW 9.0.1) date 2025-08-23 19:16:10*
%MOMM*%
%LPD*%
G01*
G04 APERTURE LIST*
G04 Aperture macros list*
%AMRoundRect*
0 Rectangle with rounded corners*
0 $1 Rounding radius*
0 $2 $3 $4 $5 $6 $7 $8 $9 X,Y pos of 4 corners*
0 Add a 4 corners polygon primitive as box body*
4,1,4,$2,$3,$4,$5,$6,$7,$8,$9,$2,$3,0*
0 Add four circle primitives for the rounded corners*
1,1,$1+$1,$2,$3*
1,1,$1+$1,$4,$5*
1,1,$1+$1,$6,$7*
1,1,$1+$1,$8,$9*
0 Add four rect primitives between the rounded corners*
20,1,$1+$1,$2,$3,$4,$5,0*
20,1,$1+$1,$4,$5,$6,$7,0*
20,1,$1+$1,$6,$7,$8,$9,0*
20,1,$1+$1,$8,$9,$2,$3,0*%
G04 Aperture macros list end*
%ADD10C,1.226200*%
%ADD11C,1.576200*%
%ADD12C,0.010000*%
%ADD13RoundRect,0.102000X0.475000X-1.075000X0.475000X1.075000X-0.475000X1.075000X-0.475000X-1.075000X0*%
%ADD14RoundRect,0.102000X1.625000X-1.075000X1.625000X1.075000X-1.625000X1.075000X-1.625000X-1.075000X0*%
%ADD15RoundRect,0.102000X0.700000X-0.500000X0.700000X0.500000X-0.700000X0.500000X-0.700000X-0.500000X0*%
%ADD16C,3.000000*%
%ADD17C,1.700000*%
%ADD18R,1.700000X1.700000*%
%ADD19RoundRect,0.243750X-0.243750X-0.456250X0.243750X-0.456250X0.243750X0.456250X-0.243750X0.456250X0*%
%ADD20RoundRect,0.250000X-0.312500X-0.625000X0.312500X-0.625000X0.312500X0.625000X-0.312500X0.625000X0*%
%ADD21RoundRect,0.250000X-0.625000X0.312500X-0.625000X-0.312500X0.625000X-0.312500X0.625000X0.312500X0*%
%ADD22O,1.700000X1.700000*%
%ADD23RoundRect,0.102000X-0.901700X-0.266700X0.901700X-0.266700X0.901700X0.266700X-0.901700X0.266700X0*%
%ADD24RoundRect,0.250000X0.312500X0.625000X-0.312500X0.625000X-0.312500X-0.625000X0.312500X-0.625000X0*%
%ADD25RoundRect,0.075000X0.125000X0.075000X-0.125000X0.075000X-0.125000X-0.075000X0.125000X-0.075000X0*%
%ADD26R,1.000000X1.250000*%
%ADD27RoundRect,0.243750X0.456250X-0.243750X0.456250X0.243750X-0.456250X0.243750X-0.456250X-0.243750X0*%
%ADD28C,1.270000*%
%ADD29R,5.400000X2.900000*%
%ADD30RoundRect,0.250000X-1.000000X-0.650000X1.000000X-0.650000X1.000000X0.650000X-1.000000X0.650000X0*%
%ADD31R,1.879600X0.533400*%
%ADD32RoundRect,0.250000X0.625000X-0.312500X0.625000X0.312500X-0.625000X0.312500X-0.625000X-0.312500X0*%
%ADD33RoundRect,0.250000X0.550000X-1.500000X0.550000X1.500000X-0.550000X1.500000X-0.550000X-1.500000X0*%
%ADD34C,2.540000*%
%ADD35RoundRect,0.100000X0.100000X-0.130000X0.100000X0.130000X-0.100000X0.130000X-0.100000X-0.130000X0*%
%ADD36RoundRect,0.150000X-0.825000X-0.150000X0.825000X-0.150000X0.825000X0.150000X-0.825000X0.150000X0*%
%ADD37RoundRect,0.162500X-0.650000X-0.162500X0.650000X-0.162500X0.650000X0.162500X-0.650000X0.162500X0*%
%ADD38RoundRect,0.100000X-0.100000X0.130000X-0.100000X-0.130000X0.100000X-0.130000X0.100000X0.130000X0*%
%ADD39RoundRect,0.250000X-1.500000X-0.550000X1.500000X-0.550000X1.500000X0.550000X-1.500000X0.550000X0*%
%ADD40R,2.400000X2.000000*%
%ADD41R,1.300000X1.500000*%
%ADD42R,1.250000X1.000000*%
%ADD43RoundRect,0.075000X-0.662500X-0.075000X0.662500X-0.075000X0.662500X0.075000X-0.662500X0.075000X0*%
%ADD44RoundRect,0.075000X-0.075000X-0.662500X0.075000X-0.662500X0.075000X0.662500X-0.075000X0.662500X0*%
%ADD45RoundRect,0.250000X1.000000X0.650000X-1.000000X0.650000X-1.000000X-0.650000X1.000000X-0.650000X0*%
%ADD46RoundRect,0.075000X-0.125000X-0.075000X0.125000X-0.075000X0.125000X0.075000X-0.125000X0.075000X0*%
%ADD47R,2.000000X1.600000*%
%ADD48O,2.000000X1.600000*%
%ADD49RoundRect,0.250000X0.300000X-2.050000X0.300000X2.050000X-0.300000X2.050000X-0.300000X-2.050000X0*%
%ADD50RoundRect,0.250002X5.149998X-4.449998X5.149998X4.449998X-5.149998X4.449998X-5.149998X-4.449998X0*%
G04 APERTURE END LIST*
D10*
%TO.C,J6*%
X85396700Y-139547600D02*
G75*
G02*
X84170500Y-139547600I-613100J0D01*
G01*
X84170500Y-139547600D02*
G75*
G02*
X85396700Y-139547600I613100J0D01*
G01*
X79896700Y-139547600D02*
G75*
G02*
X78670500Y-139547600I-613100J0D01*
G01*
X78670500Y-139547600D02*
G75*
G02*
X79896700Y-139547600I613100J0D01*
G01*
D11*
X72771700Y-139547600D02*
G75*
G02*
X71195500Y-139547600I-788100J0D01*
G01*
X71195500Y-139547600D02*
G75*
G02*
X72771700Y-139547600I788100J0D01*
G01*
D10*
X85396700Y-143747600D02*
G75*
G02*
X84170500Y-143747600I-613100J0D01*
G01*
X84170500Y-143747600D02*
G75*
G02*
X85396700Y-143747600I613100J0D01*
G01*
X79896700Y-143747600D02*
G75*
G02*
X78670500Y-143747600I-613100J0D01*
G01*
X78670500Y-143747600D02*
G75*
G02*
X79896700Y-143747600I613100J0D01*
G01*
X85396700Y-147947600D02*
G75*
G02*
X84170500Y-147947600I-613100J0D01*
G01*
X84170500Y-147947600D02*
G75*
G02*
X85396700Y-147947600I613100J0D01*
G01*
D11*
X72771700Y-147947600D02*
G75*
G02*
X71195500Y-147947600I-788100J0D01*
G01*
X71195500Y-147947600D02*
G75*
G02*
X72771700Y-147947600I788100J0D01*
G01*
D12*
X80509800Y-149173800D02*
X78057400Y-149173800D01*
X78057400Y-146721400D01*
X80509800Y-146721400D01*
X80509800Y-149173800D01*
G36*
X80509800Y-149173800D02*
G01*
X78057400Y-149173800D01*
X78057400Y-146721400D01*
X80509800Y-146721400D01*
X80509800Y-149173800D01*
G37*
%TD*%
D13*
%TO.C,U13*%
X87514400Y-75493200D03*
X89814400Y-75493200D03*
X92114400Y-75493200D03*
D14*
X89814400Y-69693200D03*
%TD*%
D15*
%TO.C,T2*%
X92979600Y-134249200D03*
X92979600Y-132349200D03*
X90779600Y-133299200D03*
%TD*%
D16*
%TO.C,J6*%
X71983600Y-139547600D03*
X71983600Y-147947600D03*
%TD*%
D17*
%TO.C,U9*%
X155092400Y-143916400D03*
X152552400Y-143916400D03*
X150012400Y-143916400D03*
D18*
X147472400Y-143916400D03*
%TD*%
D17*
%TO.C,U7*%
X139750800Y-143814800D03*
X137210800Y-143814800D03*
X134670800Y-143814800D03*
X132130800Y-143814800D03*
X129590800Y-143814800D03*
X127050800Y-143814800D03*
D18*
X124510800Y-143814800D03*
%TD*%
D19*
%TO.C,D8*%
X98482500Y-132943600D03*
X100357500Y-132943600D03*
%TD*%
%TO.C,D9*%
X98478100Y-138176000D03*
X100353100Y-138176000D03*
%TD*%
D20*
%TO.C,R27*%
X106610500Y-138176000D03*
X109535500Y-138176000D03*
%TD*%
%TO.C,R15*%
X106864500Y-132943600D03*
X109789500Y-132943600D03*
%TD*%
%TO.C,R10*%
X109818900Y-127203200D03*
X106893900Y-127203200D03*
%TD*%
%TO.C,R31*%
X115979100Y-138480800D03*
X118904100Y-138480800D03*
%TD*%
%TO.C,R29*%
X115979100Y-127508000D03*
X118904100Y-127508000D03*
%TD*%
%TO.C,R28*%
X100797900Y-127203200D03*
X97872900Y-127203200D03*
%TD*%
%TO.C,R30*%
X118904100Y-133248400D03*
X115979100Y-133248400D03*
%TD*%
D21*
%TO.C,R24*%
X192735200Y-146111500D03*
X192735200Y-149036500D03*
%TD*%
D18*
%TO.C,U11*%
X204470000Y-147574000D03*
D17*
X204470000Y-145034000D03*
X204470000Y-142494000D03*
X204470000Y-139954000D03*
%TD*%
D21*
%TO.C,R23*%
X192582800Y-139253500D03*
X192582800Y-142178500D03*
%TD*%
D22*
%TO.C,U3*%
X159134100Y-119566600D03*
X183984100Y-129726600D03*
X183984100Y-127186600D03*
X159134100Y-124646600D03*
X159134100Y-127186600D03*
X159134100Y-129726600D03*
X159134100Y-132266600D03*
D18*
X159134100Y-114486600D03*
D22*
X159134100Y-117026600D03*
D18*
X183984100Y-114486600D03*
D22*
X183984100Y-132266600D03*
X183984100Y-122106600D03*
X183984100Y-119566600D03*
X183984100Y-117026600D03*
X159134100Y-122106600D03*
X183984100Y-124646600D03*
%TD*%
D23*
%TO.C,U12*%
X165557200Y-91109800D03*
X165557200Y-92379800D03*
X165557200Y-93649800D03*
X165557200Y-94919800D03*
X165557200Y-96189800D03*
X165557200Y-97459800D03*
X165557200Y-98729800D03*
X165557200Y-99999800D03*
X175107600Y-99999800D03*
X175107600Y-98729800D03*
X175107600Y-97459800D03*
X175107600Y-96189800D03*
X175107600Y-94919800D03*
X175107600Y-93649800D03*
X175107600Y-92379800D03*
X175107600Y-91109800D03*
%TD*%
D15*
%TO.C,T1*%
X93081200Y-146339600D03*
X93081200Y-144439600D03*
X90881200Y-145389600D03*
%TD*%
D18*
%TO.C,JP2*%
X108153200Y-112979200D03*
D17*
X108153200Y-115519200D03*
X108153200Y-118059200D03*
%TD*%
%TO.C,JP1*%
X96113600Y-117957600D03*
X96113600Y-115417600D03*
D18*
X96113600Y-112877600D03*
%TD*%
D24*
%TO.C,R2*%
X132998400Y-75844400D03*
X130073400Y-75844400D03*
%TD*%
D25*
%TO.C,C6*%
X129603400Y-57429400D03*
X129103400Y-57429400D03*
%TD*%
D24*
%TO.C,R18*%
X182767700Y-84785200D03*
X179842700Y-84785200D03*
%TD*%
D25*
%TO.C,C1*%
X147743400Y-77749400D03*
X147243400Y-77749400D03*
%TD*%
D16*
%TO.C,H3*%
X66344800Y-156159200D03*
%TD*%
D26*
%TO.C,SW1*%
X162204400Y-82832400D03*
X162204400Y-75082400D03*
%TD*%
D27*
%TO.C,D3*%
X121183400Y-61874400D03*
X121183400Y-59999400D03*
%TD*%
D28*
%TO.C,TH1*%
X106605000Y-102654200D03*
X111705000Y-104254200D03*
%TD*%
D21*
%TO.C,R5*%
X118872000Y-114169000D03*
X118872000Y-117094000D03*
%TD*%
D29*
%TO.C,L1*%
X88798400Y-58569400D03*
X88798400Y-48669400D03*
%TD*%
D18*
%TO.C,J1*%
X196037200Y-48260000D03*
D17*
X196037200Y-50800000D03*
X196037200Y-53340000D03*
X196037200Y-55880000D03*
X196037200Y-58420000D03*
X196037200Y-60960000D03*
X196037200Y-63500000D03*
X196037200Y-66040000D03*
%TD*%
D30*
%TO.C,D6*%
X116396000Y-103454200D03*
X120396000Y-103454200D03*
%TD*%
D31*
%TO.C,U8*%
X132253400Y-53619400D03*
X132253400Y-54889400D03*
X132253400Y-56159400D03*
X132253400Y-57429400D03*
X132253400Y-58699400D03*
X132253400Y-59969400D03*
X132253400Y-61239400D03*
X132253400Y-62509400D03*
X132253400Y-63779400D03*
X132253400Y-65049400D03*
X141727600Y-65049400D03*
X141727600Y-63779400D03*
X141727600Y-62509400D03*
X141727600Y-61239400D03*
X141727600Y-59969400D03*
X141727600Y-58699400D03*
X141727600Y-57429400D03*
X141727600Y-56159400D03*
X141727600Y-54889400D03*
X141727600Y-53619400D03*
%TD*%
D32*
%TO.C,R4*%
X115468400Y-62259400D03*
X115468400Y-59334400D03*
%TD*%
D28*
%TO.C,TH2*%
X106605000Y-85166200D03*
X111705000Y-86766200D03*
%TD*%
D24*
%TO.C,R12*%
X182767700Y-56845200D03*
X179842700Y-56845200D03*
%TD*%
D33*
%TO.C,C4*%
X99466400Y-76352400D03*
X99466400Y-70952400D03*
%TD*%
D34*
%TO.C,J4*%
X193649600Y-109728000D03*
X193649600Y-104648000D03*
X193649600Y-99568000D03*
X193649600Y-94488000D03*
X193629600Y-89408000D03*
X193629600Y-84328000D03*
X193629600Y-79248000D03*
X193629600Y-74168000D03*
%TD*%
D21*
%TO.C,R6*%
X110388400Y-69871400D03*
X110388400Y-72796400D03*
%TD*%
D30*
%TO.C,D5*%
X116396000Y-85966200D03*
X120396000Y-85966200D03*
%TD*%
D35*
%TO.C,C9*%
X137263400Y-92111400D03*
X137263400Y-91471400D03*
%TD*%
D24*
%TO.C,R7*%
X147878400Y-54254400D03*
X144953400Y-54254400D03*
%TD*%
D36*
%TO.C,U10*%
X106680000Y-92405200D03*
X106680000Y-93675200D03*
X106680000Y-94945200D03*
X106680000Y-96215200D03*
X111630000Y-96215200D03*
X111630000Y-94945200D03*
X111630000Y-93675200D03*
X111630000Y-92405200D03*
%TD*%
D16*
%TO.C,H4*%
X65989200Y-45974000D03*
%TD*%
D24*
%TO.C,R11*%
X182767700Y-51257200D03*
X179842700Y-51257200D03*
%TD*%
D20*
%TO.C,R26*%
X164247100Y-139141200D03*
X167172100Y-139141200D03*
%TD*%
D32*
%TO.C,R20*%
X120904000Y-94822200D03*
X120904000Y-91897200D03*
%TD*%
D21*
%TO.C,R21*%
X101092000Y-91897200D03*
X101092000Y-94822200D03*
%TD*%
D37*
%TO.C,U1*%
X137308400Y-77484400D03*
X137308400Y-78754400D03*
X137308400Y-80024400D03*
X137308400Y-81294400D03*
X144483400Y-81294400D03*
X144483400Y-80024400D03*
X144483400Y-78754400D03*
X144483400Y-77484400D03*
%TD*%
D34*
%TO.C,J3*%
X77466800Y-84176800D03*
X77466800Y-89256800D03*
%TD*%
D38*
%TO.C,C8*%
X137263400Y-102211400D03*
X137263400Y-102851400D03*
%TD*%
D24*
%TO.C,R16*%
X182767700Y-74117200D03*
X179842700Y-74117200D03*
%TD*%
D34*
%TO.C,J2*%
X193802000Y-132283200D03*
X193802000Y-127203200D03*
X193802000Y-122123200D03*
X193802000Y-117043200D03*
%TD*%
D24*
%TO.C,R3*%
X132998400Y-80924400D03*
X130073400Y-80924400D03*
%TD*%
%TO.C,R14*%
X182767700Y-68529200D03*
X179842700Y-68529200D03*
%TD*%
D20*
%TO.C,R25*%
X180056600Y-139141200D03*
X182981600Y-139141200D03*
%TD*%
D27*
%TO.C,D4*%
X110388400Y-76606400D03*
X110388400Y-74731400D03*
%TD*%
D39*
%TO.C,C2*%
X115943400Y-51714400D03*
X121343400Y-51714400D03*
%TD*%
D40*
%TO.C,Y1*%
X137263400Y-98956400D03*
X137263400Y-95256400D03*
%TD*%
D39*
%TO.C,C3*%
X73398400Y-55584400D03*
X78798400Y-55584400D03*
%TD*%
D34*
%TO.C,J5*%
X77500800Y-95148400D03*
X77500800Y-100228400D03*
X77500800Y-105308400D03*
X77500800Y-110388400D03*
X77520800Y-115468400D03*
X77520800Y-120548400D03*
X77520800Y-125628400D03*
X77520800Y-130708400D03*
%TD*%
D41*
%TO.C,D7*%
X93126400Y-82570400D03*
X88026400Y-82570400D03*
X88026400Y-91470400D03*
X93126400Y-91470400D03*
%TD*%
D16*
%TO.C,H2*%
X203962000Y-156159200D03*
%TD*%
%TO.C,H1*%
X204339200Y-45974000D03*
%TD*%
D33*
%TO.C,C5*%
X78130400Y-75242400D03*
X78130400Y-69842400D03*
%TD*%
D22*
%TO.C,U4*%
X124751000Y-116939000D03*
X124751000Y-119479000D03*
X151651000Y-132179000D03*
X151651000Y-124559000D03*
X151651000Y-127099000D03*
X151651000Y-122019000D03*
X151651000Y-119479000D03*
X124751000Y-127099000D03*
X124751000Y-129639000D03*
X124751000Y-124559000D03*
X151651000Y-129639000D03*
X124751000Y-122019000D03*
D18*
X124751000Y-114399000D03*
D22*
X151651000Y-116939000D03*
D18*
X151651000Y-114399000D03*
D22*
X124751000Y-132179000D03*
%TD*%
D42*
%TO.C,SW3*%
X162495000Y-145745200D03*
X170245000Y-145745200D03*
%TD*%
%TO.C,SW2*%
X177938200Y-145745200D03*
X185688200Y-145745200D03*
%TD*%
D24*
%TO.C,R9*%
X182767700Y-45669200D03*
X179842700Y-45669200D03*
%TD*%
D43*
%TO.C,U6*%
X144735400Y-94728400D03*
X144735400Y-95228400D03*
X144735400Y-95728400D03*
X144735400Y-96228400D03*
X144735400Y-96728400D03*
X144735400Y-97228400D03*
X144735400Y-97728400D03*
X144735400Y-98228400D03*
X144735400Y-98728400D03*
X144735400Y-99228400D03*
X144735400Y-99728400D03*
X144735400Y-100228400D03*
D44*
X146147900Y-101640900D03*
X146647900Y-101640900D03*
X147147900Y-101640900D03*
X147647900Y-101640900D03*
X148147900Y-101640900D03*
X148647900Y-101640900D03*
X149147900Y-101640900D03*
X149647900Y-101640900D03*
X150147900Y-101640900D03*
X150647900Y-101640900D03*
X151147900Y-101640900D03*
X151647900Y-101640900D03*
D43*
X153060400Y-100228400D03*
X153060400Y-99728400D03*
X153060400Y-99228400D03*
X153060400Y-98728400D03*
X153060400Y-98228400D03*
X153060400Y-97728400D03*
X153060400Y-97228400D03*
X153060400Y-96728400D03*
X153060400Y-96228400D03*
X153060400Y-95728400D03*
X153060400Y-95228400D03*
X153060400Y-94728400D03*
D44*
X151647900Y-93315900D03*
X151147900Y-93315900D03*
X150647900Y-93315900D03*
X150147900Y-93315900D03*
X149647900Y-93315900D03*
X149147900Y-93315900D03*
X148647900Y-93315900D03*
X148147900Y-93315900D03*
X147647900Y-93315900D03*
X147147900Y-93315900D03*
X146647900Y-93315900D03*
X146147900Y-93315900D03*
%TD*%
D45*
%TO.C,D2*%
X90893400Y-64414400D03*
X86893400Y-64414400D03*
%TD*%
D32*
%TO.C,R22*%
X120904000Y-100025200D03*
X120904000Y-97100200D03*
%TD*%
D30*
%TO.C,D1*%
X115246400Y-68478400D03*
X119246400Y-68478400D03*
%TD*%
D24*
%TO.C,R8*%
X147878400Y-59334400D03*
X144953400Y-59334400D03*
%TD*%
D20*
%TO.C,R19*%
X161819400Y-86512400D03*
X164744400Y-86512400D03*
%TD*%
D46*
%TO.C,C10*%
X115299000Y-93359700D03*
X115799000Y-93359700D03*
%TD*%
D47*
%TO.C,BT1*%
X160828300Y-68994400D03*
D48*
X160828300Y-48494400D03*
%TD*%
D24*
%TO.C,R13*%
X182767700Y-62941200D03*
X179842700Y-62941200D03*
%TD*%
%TO.C,R17*%
X182767700Y-79197200D03*
X179842700Y-79197200D03*
%TD*%
D20*
%TO.C,R1*%
X148103400Y-80924400D03*
X151028400Y-80924400D03*
%TD*%
D49*
%TO.C,U2*%
X101348400Y-61359400D03*
X103048400Y-61359400D03*
X104748400Y-61359400D03*
D50*
X104748400Y-52209400D03*
D49*
X106448400Y-61359400D03*
X108148400Y-61359400D03*
%TD*%
D46*
%TO.C,C7*%
X146333400Y-63779400D03*
X146833400Y-63779400D03*
%TD*%
M02*
