M48
; DRILL file {KiCad 9.0.1} date 2025-08-23T12:56:26+0300
; FORMAT={-:-/ absolute / inch / decimal}
; #@! TF.CreationDate,2025-08-23T12:56:26+03:00
; #@! TF.GenerationSoftware,Kicad,Pcbnew,9.0.1
; #@! TF.FileFunction,Plated,1,2,PTH
FMAT,2
INCH
; #@! TA.AperFunction,Plated,PTH,ViaDrill
T1C0.0080
; #@! TA.AperFunction,Plated,PTH,ViaDrill
T2C0.0110
; #@! TA.AperFunction,Plated,PTH,ViaDrill
T3C0.0157
; #@! TA.AperFunction,Plated,PTH,ViaDrill
T4C0.0300
; #@! TA.AperFunction,Plated,PTH,ComponentDrill
T5C0.0315
; #@! TA.AperFunction,Plated,PTH,ComponentDrill
T6C0.0394
; #@! TA.AperFunction,Plated,PTH,ComponentDrill
T7C0.0433
; #@! TA.AperFunction,Plated,PTH,ComponentDrill
T8C0.0472
; #@! TA.AperFunction,Plated,PTH,ComponentDrill
T9C0.0512
; #@! TA.AperFunction,Plated,PTH,ComponentDrill
T10C0.0551
; #@! TA.AperFunction,Plated,PTH,ComponentDrill
T11C0.0591
; #@! TA.AperFunction,Plated,PTH,ComponentDrill
T12C0.0602
; #@! TA.AperFunction,Plated,PTH,ComponentDrill
T13C0.0709
%
G90
G05
T1
X6.6177Y-7.3815
X6.8411Y-7.6059
X6.8485Y-7.301
X7.7474Y-8.942
X8.314Y-9.03
X8.4254Y-5.8884
X8.5773Y-8.976
X8.7922Y-7.8919
X8.9468Y-7.971
X9.1707Y-9.0854
X9.1719Y-5.4423
T2
X6.778Y-8.956
T3
X6.9723Y-8.565
X7.364Y-4.327
X7.4325Y-3.8959
X7.5288Y-7.0841
X7.8221Y-8.3417
X7.8223Y-7.0036
X8.122Y-8.394
X8.4835Y-7.9702
X8.5714Y-5.8884
X9.0958Y-5.7397
X9.2456Y-9.2341
X9.3954Y-7.5241
T4
X6.4877Y-5.4558
T5
X6.9168Y-7.13
X6.9168Y-7.43
X6.9196Y-5.7744
X6.9196Y-6.0744
X6.9211Y-8.46
X6.9211Y-8.76
X7.1538Y-7.13
X7.1538Y-7.43
X7.1641Y-8.46
X7.1641Y-8.76
X7.1676Y-5.7744
X7.1676Y-6.0744
X7.175Y-4.385
X7.1936Y-5.2954
X7.1936Y-5.5954
X7.2059Y-6.6184
X7.2059Y-6.9184
X7.2171Y-7.9642
X7.2171Y-8.2642
X7.2936Y-5.2954
X7.2936Y-5.5954
X7.3059Y-6.6184
X7.3059Y-6.9184
X7.3171Y-7.9642
X7.3171Y-8.2642
X7.3325Y-4.0897
X7.3936Y-5.2954
X7.3936Y-5.5954
X7.4Y-7.23
X7.4Y-7.53
X7.4059Y-6.6184
X7.4059Y-6.9184
X7.4156Y-5.89
X7.4156Y-6.19
X7.4161Y-8.56
X7.4161Y-8.86
X7.4171Y-7.9642
X7.4171Y-8.2642
X7.7293Y-5.7744
X7.7293Y-6.0744
X7.752Y-7.13
X7.752Y-7.43
X7.753Y-8.47
X7.753Y-8.77
X7.9823Y-5.7744
X7.9823Y-6.0744
X8.0Y-8.47
X8.0Y-8.77
X8.01Y-7.13
X8.01Y-7.43
X8.0295Y-7.9642
X8.0295Y-8.2642
X8.0483Y-5.2954
X8.0483Y-5.5954
X8.049Y-6.6184
X8.049Y-6.9184
X8.1295Y-7.9642
X8.1295Y-8.2642
X8.1483Y-5.2954
X8.1483Y-5.5954
X8.149Y-6.6184
X8.149Y-6.9184
X8.2295Y-7.9642
X8.2295Y-8.2642
X8.2483Y-5.2954
X8.2483Y-5.5954
X8.249Y-6.6184
X8.249Y-6.9184
X8.26Y-5.89
X8.26Y-6.19
X8.26Y-8.57
X8.26Y-8.87
X8.28Y-7.23
X8.28Y-7.53
X8.58Y-8.1
X8.58Y-8.4
X8.84Y-8.1
X8.84Y-8.4
X8.913Y-7.584
X8.913Y-7.884
X9.013Y-7.584
X9.013Y-7.884
X9.1Y-8.19
X9.1Y-8.49
X9.113Y-7.584
X9.113Y-7.884
X9.138Y-3.2222
X9.138Y-3.36
T6
X7.0158Y-5.0064
X7.0281Y-6.3534
X7.0393Y-7.7174
X7.1781Y-2.7154
X7.1781Y-2.9516
X7.4095Y-5.0064
X7.4218Y-6.3534
X7.433Y-7.7174
X7.8468Y-7.7174
X7.8734Y-5.0064
X7.876Y-6.3534
X8.2405Y-7.7174
X8.2671Y-5.0064
X8.2697Y-6.3534
X8.5009Y-2.4791
X8.5009Y-3.1878
X8.729Y-7.3592
X8.9984Y-5.1457
X8.9984Y-5.2457
X8.9984Y-5.3457
X8.9984Y-5.4457
X8.9984Y-5.5457
X8.999Y-5.8859
X8.999Y-5.9859
X8.999Y-6.0859
X8.999Y-6.1859
X9.1227Y-7.3592
T7
X6.9555Y-8.0144
X6.9555Y-8.1144
X6.9555Y-8.2144
X6.956Y-5.3456
X6.956Y-5.4456
X6.956Y-5.5456
X6.9589Y-6.6686
X6.9589Y-6.7686
X6.9589Y-6.8686
X7.775Y-6.6686
X7.775Y-6.7686
X7.775Y-6.8686
X7.7835Y-8.0144
X7.7835Y-8.1144
X7.7835Y-8.2144
X7.7853Y-5.3456
X7.7853Y-5.4456
X7.7853Y-5.5456
X8.665Y-7.6342
X8.665Y-7.7342
X8.665Y-7.8342
T8
X7.65Y-3.8897
X7.65Y-4.4803
X7.8787Y-3.9647
X7.8787Y-4.26
X8.3Y-3.9647
X8.3Y-4.26
T9
X6.776Y-2.3571
X6.776Y-3.2429
T10
X6.7321Y-9.1408
X6.9321Y-9.1408
X7.1321Y-9.1408
X7.3321Y-9.1408
X7.5321Y-9.14
X7.7321Y-9.14
X7.9321Y-9.14
X8.1321Y-9.14
X8.42Y-9.14
X8.62Y-9.14
X8.82Y-9.14
X8.832Y-2.5459
X9.02Y-9.14
X9.032Y-2.5459
T11
X6.7757Y-4.1212
X6.7757Y-4.32
X6.7761Y-3.9247
X9.26Y-4.1212
X9.26Y-4.32
X9.2604Y-3.9247
T12
X6.2527Y-6.5268
X6.2527Y-8.4772
X6.2536Y-9.0202
X6.2536Y-9.395
X6.2538Y-5.0312
X6.2538Y-5.406
X6.2538Y-6.9817
X6.2538Y-7.3565
X6.2543Y-5.7803
X6.2543Y-6.154
X6.2543Y-7.7307
X6.2543Y-8.1045
X6.3023Y-2.6652
X6.3023Y-3.04
T13
X8.9151Y-6.3158
X8.9151Y-6.552
M30
